<svg version="1.2" xmlns="http://www.w3.org/2000/svg" viewBox="0 0 500 300" width="500" height="300">
	<title>d55bb295d2a8b570c3560064ee726527-ai</title>
	<defs>
		<linearGradient id="g1" x2="1" gradientUnits="userSpaceOnUse" gradientTransform="matrix(156.78,0,0,256.691,25.146,.956)">
			<stop offset="0" stop-color="#024d62"/>
			<stop offset=".533" stop-color="#018b96"/>
			<stop offset="1" stop-color="#00b0b6"/>
		</linearGradient>
		<linearGradient id="g2" x2="1" gradientUnits="userSpaceOnUse" gradientTransform="matrix(88.157,0,0,135.472,173.488,122.175)">
			<stop offset="0" stop-color="#024d62"/>
			<stop offset=".533" stop-color="#018b96"/>
			<stop offset="1" stop-color="#00b0b6"/>
		</linearGradient>
		<linearGradient id="g3" x2="1" gradientUnits="userSpaceOnUse" gradientTransform="matrix(192.407,0,0,187.659,111.302,55.728)">
			<stop offset="0" stop-color="#024d62"/>
			<stop offset=".533" stop-color="#018b96"/>
			<stop offset="1" stop-color="#00b0b6"/>
		</linearGradient>
		<linearGradient id="g4" x2="1" gradientUnits="userSpaceOnUse" gradientTransform="matrix(76.163,0,0,94.636,279.443,165.672)">
			<stop offset="0" stop-color="#024d62"/>
			<stop offset=".533" stop-color="#018b96"/>
			<stop offset="1" stop-color="#00b0b6"/>
		</linearGradient>
		<linearGradient id="g5" x2="1" gradientUnits="userSpaceOnUse" gradientTransform="matrix(8.188,0,0,94.636,373.249,165.672)">
			<stop offset="0" stop-color="#024d62"/>
			<stop offset=".533" stop-color="#018b96"/>
			<stop offset="1" stop-color="#00b0b6"/>
		</linearGradient>
		<linearGradient id="g6" x2="1" gradientUnits="userSpaceOnUse" gradientTransform="matrix(69.506,0,0,97.236,401.344,164.373)">
			<stop offset="0" stop-color="#024d62"/>
			<stop offset=".533" stop-color="#018b96"/>
			<stop offset="1" stop-color="#00b0b6"/>
		</linearGradient>
	</defs>
	<style>
		tspan { white-space:pre } 
		.s0 { fill: url(#g1) } 
		.s1 { fill: url(#g2) } 
		.s2 { fill: url(#g3) } 
		.s3 { fill: url(#g4) } 
		.s4 { fill: url(#g5) } 
		.s5 { fill: url(#g6) } 
		.t6 { font-size: 37px;line-height: 108px;fill: #398c9e;font-weight: 700;font-family: "Roboto-Bold", "Roboto" } 
		.t7 { font-size: 37px;line-height: 108px;fill: #7fadb7;font-weight: 700;font-family: "Roboto-Bold", "Roboto" } 
		.t8 { font-size: 37px;line-height: 108px;fill: #4896a7;font-weight: 700;font-family: "Roboto-Bold", "Roboto" } 
	</style>
	<g id="Layer 1">
		<g id="&lt;Group&gt;">
			<g id="&lt;Group&gt;">
				<g id="&lt;Group&gt;">
					<g id="&lt;Group&gt;">
						<path id="&lt;Path&gt;" class="s0" d="m161.4 102.9c6.7-6.5 13.6-12.6 20.5-18.1l-19.9-43.2 0.1-0.1-18.7-40.5-118.3 256.6h36.5l79.6-172.8 2.2-4.6 0.6 1.2 12.3 26.6q2.5-2.6 5.1-5.1z"/>
						<path id="&lt;Path&gt;" class="s1" d="m261.6 257.6l-62.4-135.4c-6.5 4.9-12.9 10.4-19.1 16.3-2.2 2.2-4.4 4.5-6.6 6.9l51.7 112.2z"/>
					</g>
					<path id="&lt;Path&gt;" class="s2" d="m295.4 64.6c-21.5-22.1-78.3-1.6-126.9 45.7-46.2 45-68.2 98-51.8 122.1-1.1-20.9 13.2-59.9 56.3-101.3 38-36.4 81.5-55.4 99-38.7 13.7 13.1 3.7 52.5-34 89.2-25.5 24.9-57.3 52.2-80.3 61.8 25.9-5.2 58.9-24.1 88.7-53.1 48.6-47.3 70.6-103.6 49-125.7z"/>
				</g>
			</g>
			<g id="&lt;Group&gt;">
				<g id="&lt;Group&gt;">
					<g id="&lt;Group&gt;">
						<path id="&lt;Compound Path&gt;" class="s3" d="m317.5 205.7l27.3-40h9.8l-32.1 46.6 33.1 48h-9.8l-28.3-41.3-28.3 41.3h-9.8l33.2-48-32.2-46.6h9.8z"/>
						<path id="&lt;Compound Path&gt;" class="s4" d="m381.4 260.3h-8.2v-94.6h8.2z"/>
						<path id="&lt;Compound Path&gt;" class="s5" d="m462.6 237q0-7.8-5.7-12.4-5.6-4.6-20.7-8.7-15-4.1-21.9-9-9.9-6.9-9.9-18.1 0-10.8 9.2-17.6 9.1-6.8 23.4-6.8 9.6 0 17.2 3.6 7.7 3.7 11.9 10.2 4.2 6.5 4.2 14.4h-8.3q0-9.7-6.8-15.6-6.8-5.9-18.2-5.9-11.2 0-17.7 4.9-6.6 4.8-6.6 12.6 0 7.3 5.9 11.8 5.9 4.6 19 8.1 13 3.5 19.7 7.2 6.8 3.7 10.2 8.9 3.3 5.2 3.3 12.3 0 11.2-9.1 17.9-9.2 6.8-24.1 6.8-10.3 0-18.8-3.6-8.6-3.5-13-10-4.5-6.4-4.5-14.7h8.2q0 10 7.7 15.8 7.6 5.7 20.4 5.7 11.3 0 18.1-4.8 6.9-4.9 6.9-13z"/>
					</g>
				</g>
				<g id="&lt;Group&gt;">
					<text id="MedCare  Solutions" style="transform: matrix(1,0,0,1,17.749,297.291)" >
						<tspan x="0" y="0" class="t6" dx="0 7 7 7 7 7 7" >MedCare</tspan><tspan  y="0" class="t7" dx="0" > </tspan><tspan  y="0" class="t7" dx="0" > </tspan><tspan  y="0" class="t8" dx="0 7 7 7 7 7 7 7 7 7" >Solutions
</tspan>
					</text>
				</g>
				<text id="
" style="transform: matrix(1,0,0,1,914.085,244.172)" >
				</text>
			</g>
		</g>
	</g>
</svg>